<?xml version="1.0" encoding="UTF-8" standalone="no"?>
<!DOCTYPE svg PUBLIC "-//W3C//DTD SVG 1.1//EN" "http://www.w3.org/Graphics/SVG/1.1/DTD/svg11.dtd">
<!-- Created with Vectornator (http://vectornator.io/) -->
<svg height="100%" stroke-miterlimit="10" style="fill-rule:nonzero;clip-rule:evenodd;stroke-linecap:round;stroke-linejoin:round;" version="1.1" viewBox="0 0 120 120" width="100%" xml:space="preserve" xmlns="http://www.w3.org/2000/svg" xmlns:vectornator="http://vectornator.io" xmlns:xlink="http://www.w3.org/1999/xlink">
<defs>
<clipPath id="TextBounds">
<rect height="35.8299" width="35.4914" x="13.2137" y="11.5505"/>
</clipPath>
<clipPath id="TextBounds_2">
<rect height="43.4191" width="42.4" x="79.3878" y="40.2682"/>
</clipPath>
<clipPath id="TextBounds_3">
<rect height="29.7741" width="23.7451" x="37.85" y="82.9165"/>
</clipPath>
</defs>
<clipPath id="ArtboardFrame">
<rect height="120" width="120" x="0" y="0"/>
</clipPath>
<g clip-path="url(#ArtboardFrame)" id="Layer-1" vectornator:layerName="Layer 1">
<path d="M0.538299 120.105C0.538299 118.546 2.4074 116.6 3.26942 115.439C4.0177 114.431 4.8595 113.491 5.55608 112.447C8.62943 107.841 10.9726 102.497 13.2139 97.4713C14.7706 93.9804 15.8576 90.3103 17.5279 86.8428C20.7821 80.087 24.7063 73.9064 28.7602 67.6249C32.1324 62.3999 35.6675 56.8764 40.2381 52.6062C46.9562 46.3295 53.5534 39.3743 61.4228 34.5485C64.2432 32.819 67.0639 31.0251 69.9973 29.5001C74.1997 27.3153 79.2158 25.4451 82.7185 22.1422C87.3684 17.7574 90.0979 11.2432 94.0261 6.24344C97.8271 1.4055 102.305-2.85636 107.236-6.51632C108.194-7.22727 108.711-7.86357 109.804-7.86357C112.618-7.86357 116.263-8.55096 118.995-7.87743C119.511-7.75025 118.904-6.30428 118.934-6.11839C119.088-5.16631 120.015-4.2943 120.508-3.49219C120.634-3.28706 122.265-0.729888 121.894-1.47181" fill="#3e93ff" fill-rule="evenodd" opacity="1" stroke="none"/>
<path d="M90.0774 7.63127C88.3062 7.63127 86.3117 9.15202 84.6359 9.62393C81.6992 10.4509 78.4636 10.6 75.4635 10.9405C70.9824 11.449 66.5396 12.1701 62.0405 12.557C59.7016 12.7581 57.3539 12.8497 55.0162 13.0648C51.5596 13.3829 49.7888 15.651 47.5198 18.332C46.468 19.5749 45.4742 20.867 44.5085 22.1778C43.1538 24.0165 42.4663 25.2065 41.2359 27.4163C40.0104 29.6172 38.9955 31.9339 37.7148 34.1031C35.45 37.9391 33.1175 41.7434 30.5559 45.3879C27.9317 49.1215 24.7824 52.3894 22.0161 55.9946C18.3855 60.7262 15.663 65.9263 13.5614 71.4598C11.8609 75.9369 10.873 80.6301 9.3266 85.1619C8.42416 87.8065 7.17949 90.5722 7.44975 93.4374C7.64878 95.5474 8.18346 97.6216 8.28523 99.7461C8.36918 101.499 8.7768 104.913 7.92787 106.596C6.66607 109.098 4.58835 111.338 3.32387 113.824C2.86642 114.724 2.26065 120.043 0.406642 120.043" fill="#3e93ff" fill-rule="evenodd" opacity="1" stroke="none"/>
<path d="M23.9335 33.1894C21.4489 38.3694 19.6616 43.8791 17.023 49.0099C8.36083 65.8542-0.857748 82.2565-7.99065 99.8322C-9.87772 104.482-11.7801 109.126-13.7479 113.742C-14.6325 115.817-15.5351 118.305-16.1969 120.396C-16.3715 120.948-16.9119 121.696-16.5028 122.105C-15.8109 122.797-11.292 120.613-10.5238 120.118C-5.40359 116.818-0.751877 113.164 4.75031 110.479C5.86414 109.936 6.98872 109.415 8.10506 108.877C8.62808 108.625 9.69088 108.737 9.69088 108.156C9.69088 107.923 9.47449 108.572 9.32858 108.753C9.09845 109.039 8.84527 109.307 8.62278 109.598C8.1422 110.229 6.97707 111.789 6.53608 112.635C5.19438 115.211 4.48193 118.027 3.62281 120.575C3.39088 121.263-0.149679 118.449-0.149679 117.243" fill="#3e93ff" fill-rule="evenodd" opacity="1" stroke="none"/>
<path d="M6.33612 106.963C6.33612 101.158 6.32746 95.4518 7.30424 89.7095C7.57467 88.1197 7.90265 86.4578 8.50795 84.9491C8.82129 84.1681 9.21684 83.3664 9.68395 82.6634C9.71746 82.613 9.83572 82.5263 9.77799 82.508C9.05477 82.2791 8.9701 83.795 8.63169 84.4739C7.27864 87.1884 6.68719 88.3119 5.41057 91.1943C3.48237 95.5479 0.811249 100.734-0.0417806 105.563C-0.563066 108.513 0.0971089 111.395-0.387254 114.288" fill="#3e93ff" fill-rule="evenodd" opacity="1" stroke="none"/>
<path d="M12.3418 91.4458C11.402 96.5622 7.60556 101.755 4.62459 105.961C3.4799 107.576 0.774672 110.65 0.208663 112.576C-0.00242249 113.294-0.535943 119.563-0.473375 119.603C0.0139132 119.915 0.731302 119.718 1.25795 119.479C2.10579 119.093 2.9285 118.62 3.6436 118.023C4.69404 117.147 5.6307 116.134 6.51529 115.09C7.82087 113.55 9.00915 111.913 10.2027 110.283C11.4594 108.568 12.6879 106.831 13.8643 105.06C16.1132 101.673 18.0302 98.0667 20.0689 94.557C20.2206 94.2959 19.7058 95.0396 19.5176 95.2757C19.0692 95.8383 18.6275 96.4076 18.1466 96.9427C17.5216 97.638 16.8589 98.2984 16.2024 98.964C14.1559 101.039 12.1257 103.114 10.1314 105.24C10.1188 105.253 8.39609 106.774 8.39609 107.186" fill="#3e93ff" fill-rule="evenodd" opacity="1" stroke="none"/>
<path d="M7.01816 101.09C5.75184 102.476 4.61794 103.825 3.50205 105.323C3.28134 105.619 3.24163 106.206 2.87346 106.236C2.61046 106.257 2.96887 105.709 3.08728 105.474C3.48715 104.677 3.91522 103.895 4.34346 103.114C4.9969 101.921 5.66538 100.737 6.33216 99.552C7.81404 96.9184 9.18624 94.1687 10.7629 91.5903C10.8552 91.4395 10.6287 91.9231 10.5174 92.0605C10.225 92.4218 9.91567 92.7692 9.61268 93.1217C9.18678 93.6172 8.74905 94.1026 8.33076 94.6045C7.44412 95.6685 6.62988 96.7796 5.81246 97.8959C5.72632 98.0136 5.72333 98.2752 5.57786 98.2652C5.21882 98.2404 5.75273 97.5589 5.92432 97.2426C6.45694 96.2607 7.00086 95.2794 7.64674 94.3679C9.44111 91.8359 11.1634 89.935 13.205 87.6772C14.2425 86.5299 14.7678 85.9605 15.8263 84.9521C15.9892 84.7968 16.3388 84.3617 16.3905 84.5808C16.6881 85.8415 15.8383 87.2916 15.3491 88.2573C14.5517 89.8315 13.5849 91.3141 12.6794 92.8287C11.0083 95.6238 9.2808 98.3854 7.63288 101.194C6.7565 102.688 5.92025 104.205 5.03738 105.695C4.89495 105.936 4.70187 106.638 4.57015 106.391C4.3078 105.9 6.00912 102.632 6.38561 101.868C7.77941 99.0403 9.31303 96.3089 11.1381 93.7364C11.5507 93.1548 11.8459 91.9366 12.5358 92.1169C12.8378 92.1959 12.1995 92.6488 11.9795 92.8702C11.5349 93.3179 11.0535 93.7277 10.5986 94.165C9.97083 94.7685 9.34533 95.3745 8.73167 95.9924C7.60472 97.127 7.05728 97.746 6.01638 98.8363C5.76953 99.0949 5.5676 99.7453 5.24822 99.5847C4.85799 99.3885 6.00106 96.844 6.66279 95.5529C8.07213 92.803 9.75614 90.1832 11.2807 87.4961C11.605 86.9244 11.6722 85.8517 12.329 85.8261C12.4755 85.8204 12.2293 86.1052 12.1478 86.227C11.8551 86.6644 11.5512 87.0944 11.2401 87.5189C10.7179 88.2312 10.1892 88.939 9.64831 89.6372C9.07384 90.3788 8.48479 91.109 7.89422 91.8378C6.94984 93.0032 5.98025 94.1457 5.04728 95.3202C4.9667 95.4217 4.94196 95.6381 4.81267 95.6301C4.5294 95.6124 4.92131 95.0653 5.05024 94.8124C5.32579 94.272 5.64725 93.7551 5.98372 93.2504C6.61845 92.2983 8.5539 88.5704 9.91558 88.3405C10.1464 88.3015 9.78833 88.7947 9.679 89.0017C9.4206 89.491 9.14804 89.9745 8.83858 90.4331C8.39073 91.0969 7.90164 91.7323 7.41016 92.3644C6.03705 94.1304 4.14324 95.9149 3.29219 98.0464C3.2094 98.2538 3.72096 97.9217 3.93562 97.8603C4.57962 97.6762 5.22278 97.4888 5.86988 97.3159C6.69848 97.0944 7.53173 96.8908 8.36244 96.6774C9.04627 96.5017 9.73003 96.3258 10.4135 96.1488C11.3196 95.9141 12.6018 96.2836 13.1516 95.5261C13.6382 94.8556 12.085 93.4581 11.8964 93.1088C11.4764 92.331 11.3008 90.9154 10.6263 90.3163C9.58052 89.3875 8.30936 88.9807 7.68436 87.7307C7.49935 87.3607 8.44852 88.0646 8.85442 88.1445C9.07836 88.1886 11.5232 88.381 11.5232 88.6236" fill="#3e93ff" fill-rule="evenodd" opacity="1" stroke="none"/>
<path d="M6.8964 103.365C6.8964 100.901 7.14259 98.6317 7.59725 96.2171C7.75443 95.3823 8.08611 94.268 8.03775 93.383C7.99221 92.5496 7.4672 92.2653 7.81502 91.3725C8.15557 90.4985 8.58467 89.6592 8.89797 88.775C9.08396 88.2501 9.25445 87.7197 9.42064 87.1882C9.62553 86.5329 9.785 85.8641 9.98884 85.2084C10.3277 84.1184 9.47991 87.36 9.45033 87.5832C9.08658 90.329 8.93503 93.7182 7.6804 96.2339C7.1086 97.3804 6.25045 98.2478 5.22249 98.9759C5.13802 99.0357 5.04304 99.2204 4.9661 99.1511C4.36433 98.6095 5.09274 95.5746 5.36998 94.8906C5.55434 94.4358 7.19482 94.5168 6.84196 94.8579" fill="#3e93ff" fill-rule="evenodd" opacity="1" stroke="none"/>
<path d="M7.29038 93.6453C7.29038 97.1608 7.29038 100.676 7.29038 104.192C7.29038 104.425 7.27397 103.724 7.29038 103.491C7.31411 103.154 7.34817 102.818 7.39531 102.483C7.45307 102.073 7.76025 100.355 7.84868 99.9361C8.63334 96.2206 9.34606 92.4699 10.1987 88.7602C10.5306 87.3162 10.8714 85.8791 11.2866 84.4571C11.3792 84.1398 11.6677 83.2109 11.6677 83.5415" fill="#3e93ff" fill-rule="evenodd" opacity="1" stroke="none"/>
<path d="M75.7714 25.4395C77.914 24.2005 79.8835 22.6731 82.0315 21.4532C83.4884 20.6257 84.9919 19.9362 86.3979 19.0131C89.8209 16.7659 97.893 10.2282 96.1969 4.59625C95.7718 3.18456 90.484 2.14347 90.0764 0.723776C90.0248 0.54409 90.4341 0.850229 90.6208 0.858402C91.1981 0.883663 91.8519 0.926225 92.4284 0.858402C92.5386 0.845436 92.4634 0.371322 92.5194 0.286242C92.7168-0.0132631 93.0953-0.297953 93.4074-0.471028C93.9756-0.786158 95.8646-0.775668 96.5988-0.618523C97.2219-0.485162 97.9685 0.174431 98.6321 0.376323C100.478 0.938121 96.7313-0.938363 96.6067-1.16198" fill="#3e93ff" fill-rule="evenodd" opacity="1" stroke="none"/>
<path d="M97.2709 2.70456C95.2417 2.70456 95.5081 1.16457 95.0387 0.00610146C94.927-0.26956 94.0588-0.347055 94.3092-0.507655C94.6052-0.697553 95.08-0.772708 95.0981-0.370059" fill="#3e93ff" fill-rule="evenodd" opacity="1" stroke="none"/>
<path d="M95.2337 3.52023C95.6116 2.62958 97.1135 2.48963 97.657 1.55727" fill="#3e93ff" fill-rule="evenodd" opacity="1" stroke="none"/>
<path d="M74.5811 26.9484C75.5825 26.9484 76.889 27.1738 77.8391 26.8006C79.2064 26.2633 79.9485 24.0539 80.7642 22.9409C80.9211 22.7269 82.9979 21.8914 83.3779 21.6289C83.6588 21.4349 83.738 20.8663 83.9988 20.5686C85.0719 19.3438 85.3814 18.2993 86.7513 17.2729C87.0866 17.0217 87.3881 17.0455 87.7223 16.709C87.7575 16.6735 87.9681 16.4701 87.9684 16.4773" fill="#3e93ff" fill-rule="evenodd" opacity="1" stroke="none"/>
<path d="M90.5319 17.0913C88.5705 17.0913 87.1283 17.7364 85.2956 18.4109C80.0998 20.3231 75.9494 23.2189 71.9736 27.0914C70.0465 28.9685 69.6103 29.2038 69.6103 31.79C69.6103 32.0909 69.6142 34.9724 69.3063 34.647" fill="#3e93ff" fill-rule="evenodd" opacity="1" stroke="none"/>
<path d="M33.5664 41.8636C31.3709 46.3726 30.1146 51.2902 27.6756 55.6807C25.9412 58.8028 23.6414 61.5854 21.8081 64.6535C20.7486 66.4267 20.2973 68.8429 19.1497 70.488C18.6154 71.254 17.8311 71.89 17.2381 72.6252" fill="#3e93ff" fill-rule="evenodd" opacity="1" stroke="none"/>
<path d="M38.8618 53.4102C38.9118 53.4102 38.7619 53.4102 38.7119 53.4102C38.1462 53.4102 37.5805 53.4094 37.0149 53.4102C35.9853 53.4117 34.9512 53.3215 33.9261 53.4171C30.9387 53.6957 28.4902 54.3663 25.6471 55.3397C21.8628 56.6353 18.8371 58.7787 15.398 60.6433C13.5213 61.6609 11.2636 62.606 9.62819 63.99C9.04525 64.4833 9.3585 67.1023 9.24656 67.5787C9.07955 68.2894 8.08635 71.4184 7.85 72.1259C5.43241 79.3631 4.84703 86.7206 4.79557 94.3286C4.77816 96.9031 3.72405 99.583 4.8939 101.991C5.04997 102.313 5.58723 102.208 5.87858 102.414C6.35702 102.754 7.41144 103.289 7.72416 103.779C7.88338 104.028 10.8804 104.445 11.2778 105.15C11.4059 105.378 10.7745 105.291 10.5324 105.388C9.94915 105.622 9.46114 105.752 8.89243 106.087C7.99126 106.617 6.37724 107.611 5.55471 107.944C5.11037 108.123 3.60701 107.943 4.33899 107.881C4.39264 107.876 4.52922 107.853 4.54047 107.915" fill="#3e93ff" fill-rule="evenodd" opacity="1" stroke="none"/>
<path d="M7.18231 98.7507C7.04752 98.5303 7.13143 99.8855 7.13143 99.9637C7.13143 100.867 7.13143 101.77 7.13143 102.674C7.13143 105.459 7.08091 108.242 7.34734 111.019C7.40751 111.646 8.04417 112.629 7.4773 112.904C6.99299 113.139 5.43788 111.731 5.08369 111.587C3.40598 110.904 0.474653 110.747-0.750109 109.248C-1.29691 108.579 0.925903 104.06 0.7661 104.504" fill="#3e93ff" fill-rule="evenodd" opacity="1" stroke="none"/>
<path d="M32.099 55.5989C29.276 55.5989 26.873 53.9006 24.6149 52.3953C23.9886 51.9777 22.4484 50.3909 21.5358 50.3909" fill="#3e93ff" fill-rule="evenodd" opacity="1" stroke="none"/>
<path d="M2.41846 78.3235C2.31801 78.1972 2.37308 78.2907 2.37308 78.001C2.37308 76.149 2.37308 74.297 2.37308 72.445C2.37308 66.6692 2.37308 60.8934 2.37308 55.1176C2.37308 48.9616 2.71576 42.7029 2.31669 36.5593C2.01587 31.9282 0.0986788 27.2065 1.17867 22.5284C3.16314 13.9323 11.3496 6.63321 19.3821 3.54927C22.4701 2.36368 25.5074 2.58536 28.6781 2.01037C31.5773 1.4846 34.1314-0.0882128 37.0747-0.475394C42.7888-1.22707 48.1107-0.132581 53.6141 1.21272C56.5342 1.92655 59.5925 2.63759 62.34 3.89445C66.924 5.99141 70.873 8.16385 75.0102 11.0973C76.2945 12.008 77.3407 13.2841 78.4462 14.3896C78.8673 14.8107 79.269 15.2949 79.5664 15.8137C79.6879 16.0258 80.1347 16.4718 79.8902 16.4718" fill="#3e93ff" fill-rule="evenodd" opacity="1" stroke="none"/>
<path d="M1.00196 82.124C0.821133 82.2254 0.968704 81.7107 0.956572 81.5038C0.927896 81.0146 0.88999 80.5258 0.838989 80.0384C0.669651 78.4203 0.564905 77.8299 0.323959 76.2703C-0.162447 73.1217-0.471067 69.9195-0.531445 66.7315C-0.790769 53.0392-1.51835 37.482 4.65599 24.8573C6.19187 21.7169 8.03881 18.7336 9.57937 15.5868C10.684 13.3304 11.473 10.8658 13.833 9.65399C14.6533 9.23276 16.1288 8.57879 16.5739 9.7365C16.6393 9.90675 16.5997 10.3927 16.7465 10.4853C17.3694 10.8781 18.2423 10.9258 18.9297 11.1152C19.7001 11.3274 20.477 11.6084 21.1486 12.0531C21.236 12.1109 21.921 12.7717 21.8603 12.7717" fill="#3e93ff" fill-rule="evenodd" opacity="1" stroke="none"/>
<path d="M3.05864 93.3983C2.41295 89.9853 0.831946 86.7466-0.00128724 83.3617C-0.979643 79.3873-0.722604 75.3655-0.722604 71.3077C-0.722604 69.3551-0.936009 67.2255-0.668282 65.2772C-0.536112 64.3154 1.37175 61.4388 0.481424 63.4832" fill="#3e93ff" fill-rule="evenodd" opacity="1" stroke="none"/>
<path d="M0.788792 43.0326C0.788792 42.6435 0.790374 41.7591 0.770226 41.614C0.288952 38.1499-0.300055 34.7014-0.809245 31.2412C-1.66351 25.4361-2.9846 18.3867-1.8228 12.4148C-1.3554 10.0122-0.520635 7.69278 0.126611 5.33709C0.725289 3.15816 0.706103 0.180422 2.6887-1.25653C4.20808-2.35777 6.51786-2.82994 8.22819-3.49819C10.3545-4.32896 12.5245-5.25153 14.7386-5.82992C16.0035-6.16036 17.4957-5.97294 18.7756-5.97294C21.6428-5.97294 24.2527-5.85463 26.8662-4.93876C29.3097-4.08247 31.843-3.72864 34.3654-3.02029C35.2284-2.77795 36.0105-2.53654 36.856-2.23777C37.2227-2.1082 38.3045-1.74956 37.9156-1.74956" fill="#3e93ff" fill-rule="evenodd" opacity="1" stroke="none"/>
<path d="M1.19518 7.87717C1.19518 4.74599 0.0823243 1.74568-0.351975-1.3363C-0.406923-1.72623-0.60595-2.75984-0.44893-3.25752C-0.177439-4.11801 0.625868-4.87053 0.807358-5.7199C0.838081-5.86368 1.62872-5.17707 1.65657-5.16017C2.4575-4.67424 3.36708-5.08905 2.44115-4.16312" fill="#3e93ff" fill-rule="evenodd" opacity="1" stroke="none"/>
<path d="M2.7884 18.5532C1.95657 18.2129 2.36472 16.8063 2.13722 15.9368C1.93552 15.1659 1.68642 14.4076 1.49567 13.634C0.455755 9.41606 0.426437 6.00656 1.31482 1.79995C1.61879 0.360633 1.89816-1.0551 2.34213-2.45919C2.48316-2.90519 2.59643-3.37816 2.76296-3.81449C2.84667-4.03383 3.01394-4.70731 3.01394-4.47255C3.01394-3.70135 2.29879-2.80967 1.86424-2.23846C0.305424-0.189437-1.12204-1.65894-3.06534-0.948478C-3.95057-0.624838-4.5937 0.0895813-5.19766 0.769205C-5.37626 0.970189-6.44157 1.73482-6.44157 2.06469" fill="#3e93ff" fill-rule="evenodd" opacity="1" stroke="none"/>
<path d="M99.995 8.71263C100.215 8.42118 100.2 8.52853 99.7213 8.00438C98.2626 6.406 96.7685 4.84 95.2634 3.28522C93.2052 1.15902 91.0882-0.910161 88.9511-2.95703C87.6925-4.1624 86.2738-5.71857 84.5846-6.36214C81.9491-7.36631 78.0453-6.66951 75.2935-6.66951C72.7058-6.66951 69.9085-6.95742 67.3514-6.45153C63.7527-5.73956 59.2412-2.91097 57.0144-0.0373774C54.0824 3.74615 52.189 8.45384 50.1045 12.7497C49.9107 13.149 49.147 16.2359 49.707 16.2359" fill="#3e93ff" fill-rule="evenodd" opacity="1" stroke="none"/>
<path d="M70.3646 12.2642C69.9091 11.1538 67.4434 8.93572 66.7663 8.11096C64.9073 5.84672 63.0702 3.1171 60.4731 1.61842C56.9947-0.388862 49.7467 0.595248 45.8845 1.25673C44.6896 1.46139 40.3873 2.50103 39.3913 3.23021C38.7497 3.69991 38.4692 4.84742 37.9899 5.47392C37.9098 5.57857 37.7994 5.80869 37.6915 5.73316C37.2621 5.43275 37.711 2.59962 37.7843 2.19671C37.9616 1.22192 40.0342-6.23964 40.6709-6.76165C43.5789-9.14555 48.53-8.18391 51.9995-8.29848C53.1389-8.33611 54.1593-8.9044 55.3043-8.89259C55.4071-8.89153 55.1083-8.82082 55.0265-8.7585C54.6514-8.47277 54.3127-8.14214 53.9503-7.84053C53.2235-7.23567 52.5174-6.71355 52.0119-5.91381C51.2601-4.72433 51.8007-2.72262 50.528-1.753C50.4217-1.672 50.2332-1.74303 50.1574-1.66842C50.079-1.59125 50.1665-2.32404 50.0818-2.3416C49.4991-2.46246 48.2983-1.87457 47.913-1.52539" fill="#3e93ff" fill-rule="evenodd" opacity="1" stroke="none"/>
<path d="M67.8692 6.87186C62.0426 3.44857 57.9681-2.51733 52.32-6.16066C49.588-7.92296 46.3531-10.1486 42.9525-9.78581C41.715-9.6538 37.9011-5.93487 39.733-4.87618C40.5898-4.38103 42.768-4.81721 43.6312-4.79229C45.8894-4.7271 48.2403-4.76057 50.4909-4.57844C50.8234-4.55154 49.8891-4.29013 49.5839-4.15555C48.8553-3.83431 48.1475-3.66567 47.3498-3.64396C44.8231-3.57518 42.5075-3.34484 40.0067-2.87451C39.6114-2.80016 36.5746-2.19298 36.9103-2.31822" fill="#3e93ff" fill-rule="evenodd" opacity="1" stroke="none"/>
<path d="M104.383 4.55732C94.2875 1.97484 84.9682-3.24475 74.9304-6.13866C71.3756-7.16351 67.7764-6.78984 64.1162-6.78984C64.0382-6.78984 64.272-6.78984 64.3499-6.78984C64.6744-6.78984 65.1486-6.87458 65.468-6.78984C65.8191-6.69671 65.0883-6.16201 64.9819-5.81479C64.7993-5.21948 64.0577-2.9906 65.1634-3.22795" fill="#3e93ff" fill-rule="evenodd" opacity="1" stroke="none"/>
<path d="M59.1508 26.7435C59.1508 26.0479 59.1045 26.0456 59.5813 25.1448C60.3403 23.7106 61.1432 22.2975 62.0127 20.9276C63.4952 18.592 65.0125 16.2757 66.6335 14.0341C68.2352 11.8194 69.9135 9.65734 71.6745 7.56705C72.9125 6.09753 74.2463 4.70777 75.6215 3.36567C76.4794 2.52837 79.024 0.342297 80.3833-0.396317C81.9992-1.27445 83.801-0.937368 85.5349-1.04612C87.8073-1.18864 88.8201-1.4187 91.1776-1.96616C95.915-3.06631 100.649-4.66361 105.512-5.11341C106.527-5.20728 108.095-5.72989 109.107-5.52736C109.428-5.46319 109.2-4.76561 109.496-4.62589C109.759-4.50146 112.038-3.39504 111.556-3.39504" fill="#3e93ff" fill-rule="evenodd" opacity="1" stroke="none"/>
<path d="M3.9644 120.217C4.7727 118.35 6.15759 116.752 7.59075 115.308C13.3354 109.519 19.2201 103.87 25.1432 98.264C32.3388 91.4538 40.1672 85.5241 47.6199 79.046C52.3462 74.9378 55.8988 69.5848 60.8429 65.6479C62.8887 64.019 65.2718 63.2174 67.4063 61.7567C74.4905 56.9087 81.5089 51.8519 87.9003 46.1054C89.6268 44.5531 90.2228 43.8709 91.8356 42.1592C96.1243 37.6071 100.521 33.8266 105.393 30.0032C107.108 28.6578 108.996 26.8755 109.524 27.5767C109.973 28.174 109.845 29.4531 110.321 30.1975C112.872 34.1844 115.48 38.4006 116.82 42.9961C117.746 46.1689 118.123 49.4975 118.831 52.722C121.699 65.799 124.476 78.7562 123.539 92.2671C123.065 99.0931 121.633 105.81 121.117 112.643C120.931 115.1 120.644 117.509 120.212 119.931C120.125 120.421 119.738 122.965 119.738 122.736" fill="#eb493a" fill-rule="evenodd" opacity="1" stroke="none"/>
<path d="M118.457 2.33254C118.457 2.19077 118.457 2.6161 118.457 2.75788C118.457 3.67241 118.448 4.58698 118.457 5.50148C118.479 7.88624 118.479 8.2092 118.792 10.7201C119.336 15.0768 120.126 19.2866 120.221 23.6681C120.333 28.8354 120.5 34.0041 120.5 39.1717C120.5 41.3978 120.756 43.8056 120.447 46.0183C120.014 49.1121 118.657 52.039 117.605 54.9495C116.855 57.0247 116.401 59.2289 115.519 61.2525C114.709 63.1092 113.374 64.8923 112.369 66.6389C107.713 74.7277 100.521 83.1242 91.1252 85.6213C87.9502 86.4651 84.0228 85.8449 80.7998 85.8449C73.6757 85.8449 66.5323 85.9963 59.4102 85.8449C51.8383 85.684 45.2464 80.9829 39.8218 76.1915C39.4023 75.8209 35.5868 72.9176 35.5868 72.3855C35.5868 72.0223 35.8623 73.0616 36.0571 73.3681C36.436 73.9646 36.5053 74.6105 37.2231 75.1006C38.0304 75.6519 38.8641 76.1452 39.666 76.7122C40.108 77.0247 42.6379 78.3319 42.7955 78.9415C42.9604 79.5792 41.1693 79.2609 41.1693 78.6977" fill="#eb493a" fill-rule="evenodd" opacity="1" stroke="none"/>
<path d="M6.40275 118.908C6.40275 110.017 11.0829 101.225 14.9443 93.5688C16.8238 89.8421 18.8598 86.1935 20.9705 82.5926C25.5529 74.775 30.5632 66.9614 37.048 60.5632C40.6489 57.0103 45.2042 54.4569 49.3295 51.6009C51.7023 49.9582 53.9458 47.9412 56.6363 46.8223C59.4207 45.6643 62.4199 45.2705 65.3539 44.6791C69.5516 43.8329 73.6882 42.8269 77.9737 42.4699C82.6101 42.0837 87.1398 42.5191 91.699 43.283C93.2591 43.5444 95.4744 44.5315 97.0973 44.5315" fill="#eb493a" fill-rule="evenodd" opacity="1" stroke="none"/>
<path d="M115.747 64.0089C115.524 63.911 115.686 62.167 115.686 61.2892C115.686 58.8273 115.677 56.3654 115.686 53.9035C115.711 47.3826 116.193 41.0778 116.926 34.6186C117.408 30.3667 117.919 25.1207 117.005 20.9162C116.49 18.5484 114.953 16.1126 113.979 13.9018C112.715 11.033 112.265 8.83321 111.528 5.89106C111.433 5.5108 111.274 4.18818 110.908 3.85513C110.691 3.65756 109.776 3.72119 110.027 3.87438C111.098 4.52916 112.252 5.13801 113.458 5.49689C115.769 6.18435 118.069 6.28523 120.455 6.28523C121.225 6.28523 123.865 6.61162 124.184 6.1129C124.625 5.42385 121.985 0.794494 121.657-0.369803C121.545-0.765099 121.171-3.35227 120.976-3.52682C120.933-3.56485 120.297-3.78064 120.28-3.7404C118.833-0.391075 122.506 2.85563 124.544 4.67556C125.033 5.11186 126.087 5.23783 126.087 5.89289" fill="#eb493a" fill-rule="evenodd" opacity="1" stroke="none"/>
<path d="M115.964 3.78363C118.118 3.78363 120.273 3.78363 122.427 3.78363C122.845 3.78363 125.35 3.57459 125.454 3.82672C126.087 5.37629 125.071 8.6828 125.071 10.3076C125.071 14.7052 125.196 18.5674 124.33 22.8486C123.905 24.9484 123.457 27.0439 123.063 29.1498C121.674 36.5633 120.004 44.1416 119.213 51.6586C118.945 54.2082 119.851 57.0063 120.202 59.5292C120.692 63.0533 120.587 66.5928 120.587 70.1442C120.587 70.3542 120.53 69.7281 120.495 69.5209C120.424 69.087 120.339 68.6553 120.275 68.2201C120.204 67.7274 120.143 67.233 120.09 66.7379C119.973 65.6276 119.851 64.4523 119.927 63.3315C119.94 63.1448 120.342 64.1312 120.342 64.4141" fill="#eb493a" fill-rule="evenodd" opacity="1" stroke="none"/>
<path d="M116.946 47.2302C117.857 50.769 121.78 52.7294 122.592 56.1989C122.817 57.163 122.644 58.2059 122.729 59.1836C122.904 61.197 123.554 63.1723 123.368 65.2098C122.999 69.2619 121.364 73.1835 120.853 77.2576C120.095 83.298 120.377 89.4407 119.749 95.4984" fill="#eb493a" fill-rule="evenodd" opacity="1" stroke="none"/>
<path d="M116.105 40.2736C116.105 44.5446 120.095 49.2547 122.26 52.5881C123.307 54.2005 124.381 55.7953 125.416 57.4153C127.841 61.2116 131.36 65.6936 131.983 70.3395C132.345 73.0394 132.061 75.842 132.118 78.5547C132.166 80.8765 132.266 83.176 132.141 85.4984C132.114 85.992 132.412 87.5594 132.022 87.9377" fill="#eb493a" fill-rule="evenodd" opacity="1" stroke="none"/>
<path d="M116.769 43.9366C116.769 45.7278 116.647 47.2836 116.919 49.1149C117.372 52.1587 118.164 55.1504 119.131 58.0652C119.343 58.7037 119.753 61.8655 120.052 61.896C120.227 61.9139 120.75 60.1421 121.196 58.7931C122.031 56.2655 122.939 53.6647 123.413 51.0371C123.527 50.4039 123.604 47.6382 123.604 48.2486" fill="#eb493a" fill-rule="evenodd" opacity="1" stroke="none"/>
<path d="M116.888 9.94275C117.191 4.94246 119.073 0.657227 120.369-4.07407C120.829-5.7542 121.377-7.43213 121.713-9.14326C121.793-9.55404 121.815-9.95309 121.557-10.3047C121.405-10.5118 120.879-11.0763 121.037-10.8739C122.887-8.51021 124.403-6.14431 126.84-4.25924C127.012-4.1269 129.03-3.16352 129.03-3.1134" fill="#eb493a" fill-rule="evenodd" opacity="1" stroke="none"/>
<path d="M119.11 3.58747C114.312 3.57131 109.528 1.09195 105.531 4.99822C104.576 5.93116 104.199 7.42474 103.506 8.53474C102.758 9.73204 101.434 10.6763 100.964 12.0337C100.66 12.9106 101.136 13.684 101.178 14.5637C101.253 16.0913 100.796 17.0771 100.238 18.4586C99.0006 21.52 98.9585 24.7237 97.584 27.7372C97.1509 28.6868 96.6933 29.6159 96.2439 30.555C96.1657 30.7183 95.7407 31.8668 95.9789 31.8668" fill="#eb493a" fill-rule="evenodd" opacity="1" stroke="none"/>
<path d="M118.653 4.94047C118.653 1.31486 117.483-0.878976 119.267-4.19415C119.731-5.05605 120.535-6.02932 121.399-6.473C121.711-6.63282 121.981-6.66367 122.313-6.66367C122.472-6.66367 122.95-6.66367 122.791-6.66367C121.473-6.66367 120.632-5.65855 119.779-4.77899C118.88-3.85105 118.801-3.73188 117.828-2.93648C117.09-2.33295 116.306-1.84364 115.789-1.01422C115.271-0.183666 115.013 0.442257 114.168 1.01712C113.888 1.20813 113.017 1.42007 112.841 1.75046C112.297 2.77216 112.247 3.42234 111.982 4.39322C111.926 4.59961 111.611 4.78244 111.748 5.00922C112.325 5.95896 113.987 3.89677 114.104 3.80105C114.516 3.46463 114.948 3.15501 115.362 2.82113C115.493 2.71498 119.504-1.28831 120.109-1.28831C120.3-1.28831 119.809-1.05076 119.685-0.906972C119.289-0.449249 118.963 0.0785843 118.602 0.553285C117.873 1.51197 117.138 2.09883 116.204 3.0008C115.886 3.3083 115.753 4.39464 115.437 4.0843C114.373 3.03792 117.527 2.00651 117.727 1.91363C118.019 1.77788 118.418 0.958297 118.456 1.27837C118.654 2.97282 117.312 2.80555 116.005 2.80555C115.562 2.80555 114.704 2.9934 114.313 2.65155C113.481 1.92266 114.479 1.21858 113.993 0.618369C113.131-0.446774 112.359 0.762872 112.359-0.802471C112.359-1.25926 112.326-1.79379 112.591-2.19306C113.029-2.85297 114.494-2.21912 115.061-2.70365" fill="#eb493a" fill-rule="evenodd" opacity="1" stroke="none"/>
<path d="M117.98 6.8004C117.98 6.35608 118.163 4.70068 117.98 4.46472C117.077 3.29897 114.85-2.80532 113.171-1.95381C112.318-1.52112 111.993 3.43813 112.545 3.57738C113.441 3.80328 115.473 1.17904 117.039 0.980454C117.208 0.959053 117.677 0.910004 117.714 0.672452C117.765 0.345583 116.127 1.90753 116.097 1.93288C115.79 2.19579 114.347 2.30753 114.312 2.53879C114.28 2.75499 115.427 2.63406 115.666 2.71755" fill="#eb493a" fill-rule="evenodd" opacity="1" stroke="none"/>
<path d="M113.447 5.10639C113.268 5.10639 113.749 4.91187 113.88 4.79014C114.349 4.3536 114.778 3.86402 115.266 3.4463C116.715 2.20408 118.427 2.29685 119.978 1.56071C120.323 1.3971 119.238 1.37363 118.87 1.27379C118.482 1.16861 117.272 0.918734 117.192 0.371784C117.09-0.31928 119.538 0.0887577 119.524 0.1087" fill="#eb493a" fill-rule="evenodd" opacity="1" stroke="none"/>
<path d="M113.255 4.3978C113.255 3.49173 118.453 2.18058 119.129 1.28846C119.424 0.898705 118.181 1.02547 117.694 0.982287C116.982 0.919189 115.917 0.422201 115.347 0.422201C115.089 0.422201 115.864 0.422201 116.122 0.422201C116.275 0.422201 116.429 0.41382 116.582 0.422201C116.965 0.443182 117.345 0.697203 117.706 0.697203" fill="#eb493a" fill-rule="evenodd" opacity="1" stroke="none"/>
<path d="M116.072 17.0909C116.937 15.852 116.134 14.0703 116.159 12.5598C116.206 9.65903 116.706 6.69493 116.466 3.78638C116.386 2.81827 115.816 1.81985 115.709 0.754953C115.579-0.555929 115.33-1.03245 113.919-1.06189C113.572-1.06913 113.232-1.07592 112.901-0.954639C112.716-0.886927 112.135-0.794221 112.332-0.794221C112.684-0.794221 117.357 0.558517 117.855 1.04004" fill="#eb493a" fill-rule="evenodd" opacity="1" stroke="none"/>
<path d="M61.909 27.31C64.9361 28.8235 66.6392 31.819 68.653 34.4096C70.2177 36.4225 71.4124 38.594 72.4269 40.9336C77.2683 52.0986 71.741 57.2099 63.1786 63.7981C58.9151 67.0786 55.45 70.3992 50.2755 72.3057C48.8894 72.8164 47.5026 72.8164 46.0891 72.3671C44.9278 71.998 43.3795 71.6512 42.3702 70.9784C40.7403 69.8918 39.5117 61.3875 39.4112 59.5521C39.3298 58.0675 39.8111 53.8891 38.6036 52.6816C37.863 51.9411 36.4991 52.6226 35.4631 52.776C32.5983 53.2004 33.358 55.0357 32.108 56.9771C31.1543 58.4586 29.8338 59.6719 28.8942 61.1517C27.9708 62.6061 27.9343 64.6942 27.3157 66.3052C27.0103 67.1006 26.6764 67.8848 26.344 68.6693C26.0782 69.2966 24.7675 71.5863 25.4356 72.2544C25.6043 72.4231 30.1144 70.1821 30.5185 69.9618C32.0292 69.1382 33.3554 68.145 34.7563 67.1256C36.7649 65.664 38.5329 64.2685 40.4837 62.7045C48.337 56.4083 54.6623 51.4487 63.3033 45.7956C63.9552 45.3691 64.6445 44.8187 65.4235 44.812C65.9677 44.8073 65.4935 45.9049 65.4235 46.4446C65.3677 46.8752 65.2399 47.2934 65.1403 47.716C64.8148 49.0965 63.8935 50.2751 63.0943 51.4469C62.2712 52.6536 61.2473 53.6104 60.3837 54.7579C58.2523 57.5898 56.7319 60.9206 54.737 63.8604C53.3695 65.8756 51.8512 67.8032 50.4965 69.8234C48.8677 72.2522 47.716 75.8119 45.0359 77.3502C42.7428 78.6662 39.7761 78.4907 37.2588 78.9901C35.3721 79.3643 33.6141 80.2882 31.7203 80.5988C27.0003 81.373 22.1698 81.3156 17.4184 81.7905C14.9613 82.0361 10.4104 82.4713 8.34701 80.5173C6.15647 78.4428 5.86283 69.812 5.86283 66.6444" fill="#3e93ff" fill-rule="evenodd" opacity="1" stroke="none"/>
<path d="M29.9804 45.2703C37.6646 45.2703 41.0969 52.9408 43.9643 58.8728C46.2789 63.6614 48.6522 65.0659 44.6353 69.6941C43.4877 71.0163 40.9791 71.7772 39.4002 72.1966C38.0594 72.5528 36.7442 73.0357 35.3329 72.9346C34.2226 72.855 32.0371 71.9972 30.9301 72.5413C28.8419 73.5677 25.5049 74.2601 23.2741 74.2601" fill="#3e93ff" fill-rule="evenodd" opacity="1" stroke="none"/>
</g>
<g id="Layer-2" vectornator:layerName="Layer 2">
<path clip-path="url(#TextBounds)" d="M39.3385 33.0026L33.2641 35.6555L33.6034 39.5434L30.0013 41.1166L28.6841 22.0576L32.5771 20.3574L45.6179 34.2963L41.8816 35.9281L39.3385 33.0026ZM37.1355 30.5814L32.2435 24.992L32.9517 32.4086L37.1355 30.5814Z" fill="#141414" fill-rule="evenodd" opacity="1" stroke="none"/>
<path clip-path="url(#TextBounds_2)" d="M97.5984 76.6098L92.1697 70.5252L105.596 58.5464L111.415 65.0682C112.859 66.7355 113.422 68.3267 113.105 69.8418C112.903 70.764 112.404 71.58 111.608 72.2897C110.789 73.0211 109.946 73.4025 109.079 73.4338C108.594 73.4523 108.036 73.3398 107.404 73.0963C107.767 74.0046 107.834 74.8745 107.605 75.7058C107.376 76.5372 106.876 77.2969 106.105 77.9849C105.31 78.6947 104.417 79.1309 103.428 79.2936C102.782 79.4123 102.145 79.4078 101.518 79.2798C100.806 79.1413 100.127 78.8332 99.4831 78.3555C98.8388 77.8779 98.2106 77.296 97.5984 76.6098ZM103.453 71.2718L100.471 67.9289L96.8908 71.1227L99.8327 74.42C100.358 75.0091 100.846 75.3971 101.297 75.5842C102.119 75.9192 102.943 75.7183 103.769 74.9815C104.467 74.3584 104.69 73.642 104.436 72.8321C104.295 72.3803 103.967 71.8602 103.453 71.2718ZM107.256 70.3818C107.8 70.5511 108.354 70.3838 108.919 69.88C109.544 69.3219 109.74 68.7106 109.507 68.046C109.273 67.5024 108.866 66.9058 108.286 66.256L105.653 63.3048L102.693 65.946L105.635 69.2433C106.16 69.8323 106.701 70.2118 107.256 70.3818Z" fill="#141414" fill-rule="evenodd" opacity="1" stroke="none"/>
<path clip-path="url(#TextBounds_3)" d="M56.2687 105.855C55.0113 107.171 53.3392 107.899 51.2524 108.039C48.6704 108.212 46.5848 107.521 44.9958 105.963C43.4062 104.398 42.5141 102.166 42.3195 99.2672C42.109 96.133 42.7872 93.661 44.3541 91.8511C45.7164 90.2751 47.5262 89.4114 49.7835 89.2598C52.804 89.057 55.0791 89.8993 56.6087 91.7867C57.4548 92.8473 57.9439 93.936 58.076 95.0527L54.3246 95.3046C54.0232 94.4603 53.667 93.8317 53.2559 93.4188C52.5216 92.6851 51.4845 92.3633 50.1447 92.4532C48.7806 92.5448 47.7417 93.1672 47.0279 94.3203C46.3142 95.4734 46.0249 97.0568 46.1602 99.0705C46.2954 101.084 46.8128 102.564 47.7124 103.511C48.612 104.458 49.7033 104.889 50.9862 104.803C52.3016 104.714 53.2755 104.217 53.9079 103.309C54.2584 102.821 54.5285 102.106 54.718 101.163L58.4328 100.914C58.2394 102.892 57.5181 104.539 56.2687 105.855Z" fill="#141414" fill-rule="evenodd" opacity="1" stroke="none"/>
</g>
</svg>
